<svg xmlns="http://www.w3.org/2000/svg" xmlns:xlink="http://www.w3.org/1999/xlink" width="2000" zoomAndPan="magnify" viewBox="0 0 1500 1499.999933" height="2000" preserveAspectRatio="xMidYMid meet" version="1.0"><defs><g/><clipPath id="38467a1b59"><path d="M 338 599.398438 L 535 599.398438 L 535 796 L 338 796 Z M 338 599.398438 " clip-rule="nonzero"/></clipPath><clipPath id="7410536d4c"><path d="M 232.792969 704 L 430 704 L 430 900.898438 L 232.792969 900.898438 Z M 232.792969 704 " clip-rule="nonzero"/></clipPath><clipPath id="bccbda9038"><rect x="0" width="719" y="0" height="316"/></clipPath></defs><g clip-path="url(#38467a1b59)"><path fill="#67dcff" d="M 534.949219 750.441406 C 534.949219 775.503906 514.691406 795.789062 489.65625 795.789062 L 396.894531 795.789062 C 364.828125 795.789062 338.789062 769.722656 338.789062 737.617188 L 338.789062 644.746094 C 338.789062 619.683594 359.050781 599.398438 384.082031 599.398438 C 409.117188 599.398438 429.378906 619.683594 429.378906 644.746094 L 429.378906 705.097656 L 489.65625 705.097656 C 514.691406 705.097656 534.949219 725.464844 534.949219 750.441406 Z M 534.949219 750.441406 " fill-opacity="1" fill-rule="nonzero"/></g><g clip-path="url(#7410536d4c)"><path fill="#587dff" d="M 232.882812 749.855469 C 232.882812 724.792969 253.140625 704.511719 278.175781 704.511719 L 370.941406 704.511719 C 403.003906 704.511719 429.042969 730.578125 429.042969 762.679688 L 429.042969 855.554688 C 429.042969 880.617188 408.78125 900.898438 383.75 900.898438 C 358.714844 900.898438 338.457031 880.617188 338.457031 855.554688 L 338.457031 795.203125 L 278.175781 795.203125 C 253.140625 795.203125 232.882812 774.917969 232.882812 749.855469 Z M 232.882812 749.855469 " fill-opacity="1" fill-rule="nonzero"/></g><path fill="#2720ff" d="M 429.042969 762.679688 L 429.042969 795.789062 L 396.894531 795.789062 C 364.828125 795.789062 338.789062 769.722656 338.789062 737.617188 L 338.789062 704.511719 L 370.941406 704.511719 C 403.003906 704.511719 429.042969 730.578125 429.042969 762.679688 Z M 429.042969 762.679688 " fill-opacity="1" fill-rule="nonzero"/><g transform="matrix(1, 0, 0, 1, 583, 590)"><g clip-path="url(#bccbda9038)"><g fill="#2720ff" fill-opacity="1"><g transform="translate(1.084749, 138.999917)"><g><path d="M 61.203125 2.15625 C 53.421875 2.15625 46.191406 0.765625 39.515625 -2.015625 C 32.847656 -4.796875 27.066406 -8.5625 22.171875 -13.3125 C 17.273438 -18.070312 13.4375 -23.640625 10.65625 -30.015625 C 7.875 -36.398438 6.484375 -43.195312 6.484375 -50.40625 C 6.484375 -57.601562 7.875 -64.394531 10.65625 -70.78125 C 13.4375 -77.164062 17.273438 -82.734375 22.171875 -87.484375 C 27.066406 -92.234375 32.847656 -96 39.515625 -98.78125 C 46.191406 -101.5625 53.421875 -102.953125 61.203125 -102.953125 C 68.210938 -102.953125 74.378906 -101.894531 79.703125 -99.78125 C 85.035156 -97.675781 89.476562 -95.375 93.03125 -92.875 C 97.15625 -89.90625 100.707031 -86.546875 103.6875 -82.796875 L 89.28125 -68.40625 C 87.164062 -71.09375 84.71875 -73.488281 81.9375 -75.59375 C 79.539062 -77.425781 76.613281 -79.082031 73.15625 -80.5625 C 69.695312 -82.050781 65.710938 -82.796875 61.203125 -82.796875 C 56.691406 -82.796875 52.46875 -81.957031 48.53125 -80.28125 C 44.59375 -78.601562 41.160156 -76.296875 38.234375 -73.359375 C 35.304688 -70.429688 33 -67 31.3125 -63.0625 C 29.632812 -59.132812 28.796875 -54.914062 28.796875 -50.40625 C 28.796875 -45.882812 29.632812 -41.65625 31.3125 -37.71875 C 33 -33.789062 35.304688 -30.363281 38.234375 -27.4375 C 41.160156 -24.507812 44.59375 -22.203125 48.53125 -20.515625 C 52.46875 -18.835938 56.691406 -18 61.203125 -18 C 65.898438 -18 70.023438 -18.742188 73.578125 -20.234375 C 77.128906 -21.722656 80.15625 -23.378906 82.65625 -25.203125 C 85.53125 -27.316406 87.976562 -29.71875 90 -32.40625 L 104.40625 -18 C 101.425781 -14.257812 97.820312 -10.898438 93.59375 -7.921875 C 89.945312 -5.421875 85.4375 -3.113281 80.0625 -1 C 74.6875 1.101562 68.398438 2.15625 61.203125 2.15625 Z M 61.203125 2.15625 "/></g></g></g><g fill="#2720ff" fill-opacity="1"><g transform="translate(105.484977, 138.999917)"><g><path d="M 42.484375 1.4375 C 37.296875 1.4375 32.421875 0.476562 27.859375 -1.4375 C 23.304688 -3.351562 19.320312 -5.992188 15.90625 -9.359375 C 12.5 -12.722656 9.835938 -16.609375 7.921875 -21.015625 C 6.003906 -25.429688 5.046875 -30.1875 5.046875 -35.28125 C 5.046875 -40.269531 6.003906 -44.992188 7.921875 -49.453125 C 9.835938 -53.921875 12.5 -57.832031 15.90625 -61.1875 C 19.320312 -64.550781 23.304688 -67.191406 27.859375 -69.109375 C 32.421875 -71.035156 37.296875 -72 42.484375 -72 C 47.660156 -72 52.53125 -71.035156 57.09375 -69.109375 C 61.65625 -67.191406 65.640625 -64.550781 69.046875 -61.1875 C 72.453125 -57.832031 75.113281 -53.921875 77.03125 -49.453125 C 78.957031 -44.992188 79.921875 -40.269531 79.921875 -35.28125 C 79.921875 -30.1875 78.957031 -25.429688 77.03125 -21.015625 C 75.113281 -16.609375 72.453125 -12.722656 69.046875 -9.359375 C 65.640625 -5.992188 61.65625 -3.351562 57.09375 -1.4375 C 52.53125 0.476562 47.660156 1.4375 42.484375 1.4375 Z M 42.484375 -16.5625 C 44.972656 -16.5625 47.320312 -17.039062 49.53125 -18 C 51.738281 -18.957031 53.660156 -20.253906 55.296875 -21.890625 C 56.929688 -23.523438 58.203125 -25.492188 59.109375 -27.796875 C 60.023438 -30.097656 60.484375 -32.59375 60.484375 -35.28125 C 60.484375 -37.96875 60.023438 -40.460938 59.109375 -42.765625 C 58.203125 -45.066406 56.929688 -47.035156 55.296875 -48.671875 C 53.660156 -50.304688 51.738281 -51.601562 49.53125 -52.5625 C 47.320312 -53.519531 44.972656 -54 42.484375 -54 C 39.984375 -54 37.628906 -53.519531 35.421875 -52.5625 C 33.210938 -51.601562 31.289062 -50.304688 29.65625 -48.671875 C 28.03125 -47.035156 26.757812 -45.066406 25.84375 -42.765625 C 24.9375 -40.460938 24.484375 -37.96875 24.484375 -35.28125 C 24.484375 -32.59375 24.9375 -30.097656 25.84375 -27.796875 C 26.757812 -25.492188 28.03125 -23.523438 29.65625 -21.890625 C 31.289062 -20.253906 33.210938 -18.957031 35.421875 -18 C 37.628906 -17.039062 39.984375 -16.5625 42.484375 -16.5625 Z M 42.484375 -16.5625 "/></g></g></g><g fill="#2720ff" fill-opacity="1"><g transform="translate(187.565156, 138.999917)"><g><path d="M 9.359375 -70.5625 L 28.796875 -70.5625 L 28.796875 -60.484375 L 29.515625 -60.484375 C 31.054688 -62.585938 32.832031 -64.503906 34.84375 -66.234375 C 36.570312 -67.679688 38.734375 -69.003906 41.328125 -70.203125 C 43.921875 -71.398438 46.945312 -72 50.40625 -72 L 51.84375 -72 L 51.84375 -51.125 C 51.363281 -51.21875 50.832031 -51.3125 50.25 -51.40625 C 49.675781 -51.5 48.976562 -51.59375 48.15625 -51.6875 C 47.34375 -51.789062 46.410156 -51.84375 45.359375 -51.84375 C 40.648438 -51.84375 36.710938 -50.160156 33.546875 -46.796875 C 30.378906 -43.441406 28.796875 -38.882812 28.796875 -33.125 L 28.796875 0 L 9.359375 0 Z M 9.359375 -70.5625 "/></g></g></g><g fill="#2720ff" fill-opacity="1"><g transform="translate(239.405286, 138.999917)"><g><path d="M 42.484375 1.4375 C 37.296875 1.4375 32.421875 0.476562 27.859375 -1.4375 C 23.304688 -3.351562 19.320312 -5.992188 15.90625 -9.359375 C 12.5 -12.722656 9.835938 -16.609375 7.921875 -21.015625 C 6.003906 -25.429688 5.046875 -30.1875 5.046875 -35.28125 C 5.046875 -40.269531 6.003906 -44.992188 7.921875 -49.453125 C 9.835938 -53.921875 12.472656 -57.832031 15.828125 -61.1875 C 19.191406 -64.550781 23.082031 -67.191406 27.5 -69.109375 C 31.914062 -71.035156 36.671875 -72 41.765625 -72 C 46.660156 -72 51.242188 -71.0625 55.515625 -69.1875 C 59.785156 -67.320312 63.503906 -64.800781 66.671875 -61.625 C 69.835938 -58.457031 72.359375 -54.738281 74.234375 -50.46875 C 76.109375 -46.195312 77.046875 -41.613281 77.046875 -36.71875 C 77.046875 -35.375 76.992188 -34.195312 76.890625 -33.1875 C 76.796875 -32.1875 76.703125 -31.300781 76.609375 -30.53125 C 76.515625 -29.570312 76.414062 -28.753906 76.3125 -28.078125 L 25.203125 -28.078125 C 26.253906 -24.816406 28.289062 -21.960938 31.3125 -19.515625 C 34.34375 -17.066406 38.546875 -15.84375 43.921875 -15.84375 C 46.992188 -15.84375 49.679688 -16.222656 51.984375 -16.984375 C 54.285156 -17.753906 56.253906 -18.671875 57.890625 -19.734375 C 59.710938 -20.878906 61.296875 -22.222656 62.640625 -23.765625 L 72.71875 -10.078125 C 70.601562 -7.960938 68.007812 -6.039062 64.9375 -4.3125 C 62.351562 -2.875 59.1875 -1.554688 55.4375 -0.359375 C 51.695312 0.835938 47.378906 1.4375 42.484375 1.4375 Z M 56.875 -42.484375 C 55.820312 -45.742188 53.925781 -48.597656 51.1875 -51.046875 C 48.457031 -53.492188 45.078125 -54.71875 41.046875 -54.71875 C 37.003906 -54.71875 33.613281 -53.492188 30.875 -51.046875 C 28.144531 -48.597656 26.253906 -45.742188 25.203125 -42.484375 Z M 56.875 -42.484375 "/></g></g></g><g fill="#2720ff" fill-opacity="1"><g transform="translate(318.605489, 138.999917)"><g><path d="M 61.203125 2.15625 C 53.421875 2.15625 46.191406 0.765625 39.515625 -2.015625 C 32.847656 -4.796875 27.066406 -8.5625 22.171875 -13.3125 C 17.273438 -18.070312 13.4375 -23.640625 10.65625 -30.015625 C 7.875 -36.398438 6.484375 -43.195312 6.484375 -50.40625 C 6.484375 -57.601562 7.875 -64.394531 10.65625 -70.78125 C 13.4375 -77.164062 17.273438 -82.734375 22.171875 -87.484375 C 27.066406 -92.234375 32.847656 -96 39.515625 -98.78125 C 46.191406 -101.5625 53.421875 -102.953125 61.203125 -102.953125 C 68.210938 -102.953125 74.378906 -101.894531 79.703125 -99.78125 C 85.035156 -97.675781 89.476562 -95.375 93.03125 -92.875 C 97.15625 -89.90625 100.707031 -86.546875 103.6875 -82.796875 L 89.28125 -68.40625 C 87.164062 -71.09375 84.71875 -73.488281 81.9375 -75.59375 C 79.539062 -77.425781 76.613281 -79.082031 73.15625 -80.5625 C 69.695312 -82.050781 65.710938 -82.796875 61.203125 -82.796875 C 56.691406 -82.796875 52.46875 -81.957031 48.53125 -80.28125 C 44.59375 -78.601562 41.160156 -76.296875 38.234375 -73.359375 C 35.304688 -70.429688 33 -67 31.3125 -63.0625 C 29.632812 -59.132812 28.796875 -54.914062 28.796875 -50.40625 C 28.796875 -45.882812 29.632812 -41.65625 31.3125 -37.71875 C 33 -33.789062 35.304688 -30.363281 38.234375 -27.4375 C 41.160156 -24.507812 44.59375 -22.203125 48.53125 -20.515625 C 52.46875 -18.835938 56.691406 -18 61.203125 -18 C 65.898438 -18 70.023438 -18.742188 73.578125 -20.234375 C 77.128906 -21.722656 80.15625 -23.378906 82.65625 -25.203125 C 85.53125 -27.316406 87.976562 -29.71875 90 -32.40625 L 104.40625 -18 C 101.425781 -14.257812 97.820312 -10.898438 93.59375 -7.921875 C 89.945312 -5.421875 85.4375 -3.113281 80.0625 -1 C 74.6875 1.101562 68.398438 2.15625 61.203125 2.15625 Z M 61.203125 2.15625 "/></g></g></g><g fill="#2720ff" fill-opacity="1"><g transform="translate(423.005717, 138.999917)"><g><path d="M 42.484375 1.4375 C 37.296875 1.4375 32.421875 0.476562 27.859375 -1.4375 C 23.304688 -3.351562 19.320312 -5.992188 15.90625 -9.359375 C 12.5 -12.722656 9.835938 -16.609375 7.921875 -21.015625 C 6.003906 -25.429688 5.046875 -30.1875 5.046875 -35.28125 C 5.046875 -40.269531 6.003906 -44.992188 7.921875 -49.453125 C 9.835938 -53.921875 12.5 -57.832031 15.90625 -61.1875 C 19.320312 -64.550781 23.304688 -67.191406 27.859375 -69.109375 C 32.421875 -71.035156 37.296875 -72 42.484375 -72 C 47.660156 -72 52.53125 -71.035156 57.09375 -69.109375 C 61.65625 -67.191406 65.640625 -64.550781 69.046875 -61.1875 C 72.453125 -57.832031 75.113281 -53.921875 77.03125 -49.453125 C 78.957031 -44.992188 79.921875 -40.269531 79.921875 -35.28125 C 79.921875 -30.1875 78.957031 -25.429688 77.03125 -21.015625 C 75.113281 -16.609375 72.453125 -12.722656 69.046875 -9.359375 C 65.640625 -5.992188 61.65625 -3.351562 57.09375 -1.4375 C 52.53125 0.476562 47.660156 1.4375 42.484375 1.4375 Z M 42.484375 -16.5625 C 44.972656 -16.5625 47.320312 -17.039062 49.53125 -18 C 51.738281 -18.957031 53.660156 -20.253906 55.296875 -21.890625 C 56.929688 -23.523438 58.203125 -25.492188 59.109375 -27.796875 C 60.023438 -30.097656 60.484375 -32.59375 60.484375 -35.28125 C 60.484375 -37.96875 60.023438 -40.460938 59.109375 -42.765625 C 58.203125 -45.066406 56.929688 -47.035156 55.296875 -48.671875 C 53.660156 -50.304688 51.738281 -51.601562 49.53125 -52.5625 C 47.320312 -53.519531 44.972656 -54 42.484375 -54 C 39.984375 -54 37.628906 -53.519531 35.421875 -52.5625 C 33.210938 -51.601562 31.289062 -50.304688 29.65625 -48.671875 C 28.03125 -47.035156 26.757812 -45.066406 25.84375 -42.765625 C 24.9375 -40.460938 24.484375 -37.96875 24.484375 -35.28125 C 24.484375 -32.59375 24.9375 -30.097656 25.84375 -27.796875 C 26.757812 -25.492188 28.03125 -23.523438 29.65625 -21.890625 C 31.289062 -20.253906 33.210938 -18.957031 35.421875 -18 C 37.628906 -17.039062 39.984375 -16.5625 42.484375 -16.5625 Z M 42.484375 -16.5625 "/></g></g></g><g fill="#2720ff" fill-opacity="1"><g transform="translate(505.085896, 138.999917)"><g><path d="M 9.359375 -70.5625 L 28.796875 -70.5625 L 28.796875 -60.484375 L 29.515625 -60.484375 C 30.765625 -62.585938 32.300781 -64.503906 34.125 -66.234375 C 35.757812 -67.679688 37.773438 -69.003906 40.171875 -70.203125 C 42.578125 -71.398438 45.503906 -72 48.953125 -72 C 52.703125 -72 55.921875 -71.347656 58.609375 -70.046875 C 61.296875 -68.753906 63.457031 -67.34375 65.09375 -65.8125 C 67.007812 -64.082031 68.59375 -62.066406 69.84375 -59.765625 L 70.5625 -59.765625 C 72.195312 -62.066406 74.164062 -64.082031 76.46875 -65.8125 C 78.382812 -67.34375 80.757812 -68.753906 83.59375 -70.046875 C 86.425781 -71.347656 89.757812 -72 93.59375 -72 C 97.050781 -72 100.269531 -71.347656 103.25 -70.046875 C 106.226562 -68.753906 108.820312 -66.882812 111.03125 -64.4375 C 113.238281 -61.988281 114.960938 -59.035156 116.203125 -55.578125 C 117.453125 -52.128906 118.078125 -48.242188 118.078125 -43.921875 L 118.078125 0 L 98.640625 0 L 98.640625 -41.046875 C 98.640625 -45.078125 97.628906 -48.125 95.609375 -50.1875 C 93.597656 -52.25 90.769531 -53.28125 87.125 -53.28125 C 83.09375 -53.28125 79.800781 -51.957031 77.25 -49.3125 C 74.707031 -46.675781 73.4375 -43.195312 73.4375 -38.875 L 73.4375 0 L 54 0 L 54 -41.046875 C 54 -45.078125 52.988281 -48.125 50.96875 -50.1875 C 48.957031 -52.25 46.128906 -53.28125 42.484375 -53.28125 C 38.453125 -53.28125 35.160156 -51.957031 32.609375 -49.3125 C 30.066406 -46.675781 28.796875 -43.195312 28.796875 -38.875 L 28.796875 0 L 9.359375 0 Z M 9.359375 -70.5625 "/></g></g></g><g fill="#2720ff" fill-opacity="1"><g transform="translate(629.646174, 138.999917)"><g><path d="M 9.359375 -70.5625 L 28.796875 -70.5625 L 28.796875 -60.484375 L 29.515625 -60.484375 C 30.960938 -62.585938 32.785156 -64.503906 34.984375 -66.234375 C 36.910156 -67.679688 39.238281 -69.003906 41.96875 -70.203125 C 44.707031 -71.398438 48 -72 51.84375 -72 C 55.96875 -72 59.945312 -71.085938 63.78125 -69.265625 C 67.625 -67.441406 71.007812 -64.921875 73.9375 -61.703125 C 76.875 -58.484375 79.203125 -54.617188 80.921875 -50.109375 C 82.648438 -45.597656 83.515625 -40.65625 83.515625 -35.28125 C 83.515625 -29.90625 82.648438 -24.960938 80.921875 -20.453125 C 79.203125 -15.941406 76.875 -12.050781 73.9375 -8.78125 C 71.007812 -5.519531 67.625 -3 63.78125 -1.21875 C 59.945312 0.550781 55.96875 1.4375 51.84375 1.4375 C 48 1.4375 44.707031 0.835938 41.96875 -0.359375 C 39.238281 -1.554688 36.910156 -2.875 34.984375 -4.3125 C 32.785156 -6.039062 30.960938 -7.960938 29.515625 -10.078125 L 28.796875 -10.078125 L 28.796875 30.234375 L 9.359375 30.234375 Z M 46.078125 -16.5625 C 48.578125 -16.5625 50.929688 -17.039062 53.140625 -18 C 55.347656 -18.957031 57.265625 -20.253906 58.890625 -21.890625 C 60.523438 -23.523438 61.796875 -25.492188 62.703125 -27.796875 C 63.617188 -30.097656 64.078125 -32.59375 64.078125 -35.28125 C 64.078125 -37.96875 63.617188 -40.460938 62.703125 -42.765625 C 61.796875 -45.066406 60.523438 -47.035156 58.890625 -48.671875 C 57.265625 -50.304688 55.347656 -51.601562 53.140625 -52.5625 C 50.929688 -53.519531 48.578125 -54 46.078125 -54 C 43.585938 -54 41.238281 -53.519531 39.03125 -52.5625 C 36.820312 -51.601562 34.898438 -50.304688 33.265625 -48.671875 C 31.628906 -47.035156 30.351562 -45.066406 29.4375 -42.765625 C 28.53125 -40.460938 28.078125 -37.96875 28.078125 -35.28125 C 28.078125 -32.59375 28.53125 -30.097656 29.4375 -27.796875 C 30.351562 -25.492188 31.628906 -23.523438 33.265625 -21.890625 C 34.898438 -20.253906 36.820312 -18.957031 39.03125 -18 C 41.238281 -17.039062 43.585938 -16.5625 46.078125 -16.5625 Z M 46.078125 -16.5625 "/></g></g></g><g fill="#2720ff" fill-opacity="1"><g transform="translate(1.084749, 267.999906)"><g><path d="M 12.953125 -100.796875 L 57.59375 -100.796875 C 62.96875 -100.796875 67.835938 -99.976562 72.203125 -98.34375 C 76.578125 -96.71875 80.300781 -94.414062 83.375 -91.4375 C 86.445312 -88.457031 88.796875 -84.878906 90.421875 -80.703125 C 92.054688 -76.535156 92.875 -71.953125 92.875 -66.953125 C 92.875 -61.191406 91.984375 -56.390625 90.203125 -52.546875 C 88.429688 -48.710938 86.441406 -45.691406 84.234375 -43.484375 C 81.742188 -40.890625 78.863281 -38.875 75.59375 -37.4375 L 96.484375 0 L 72.71875 0 L 54.71875 -33.125 L 34.5625 -33.125 L 34.5625 0 L 12.953125 0 Z M 56.875 -53.28125 C 60.90625 -53.28125 64.191406 -54.550781 66.734375 -57.09375 C 69.285156 -59.632812 70.5625 -62.921875 70.5625 -66.953125 C 70.5625 -70.992188 69.285156 -74.285156 66.734375 -76.828125 C 64.191406 -79.367188 60.90625 -80.640625 56.875 -80.640625 L 34.5625 -80.640625 L 34.5625 -53.28125 Z M 56.875 -53.28125 "/></g></g></g><g fill="#2720ff" fill-opacity="1"><g transform="translate(99.724983, 267.999906)"><g><path d="M 24.484375 -36 L 0.71875 -70.5625 L 23.046875 -70.5625 L 36.4375 -48.953125 L 37.015625 -48.953125 L 50.40625 -70.5625 L 72.71875 -70.5625 L 48.953125 -36 L 74.15625 0 L 51.84375 0 L 37.015625 -23.046875 L 36.4375 -23.046875 L 21.59375 0 L -0.71875 0 Z M 24.484375 -36 "/></g></g></g></g></g></svg>
