<svg xmlns="http://www.w3.org/2000/svg" xmlns:xlink="http://www.w3.org/1999/xlink" width="2000" zoomAndPan="magnify" viewBox="0 0 1500 1499.999933" height="2000" preserveAspectRatio="xMidYMid meet" version="1.0"><defs><clipPath id="97afbac718"><path d="M 527 12.808594 L 1479 12.808594 L 1479 965 L 527 965 Z M 527 12.808594 " clip-rule="nonzero"/></clipPath><clipPath id="66f5231f99"><path d="M 13 522 L 965 522 L 965 1473.808594 L 13 1473.808594 Z M 13 522 " clip-rule="nonzero"/></clipPath></defs><g clip-path="url(#97afbac718)"><path fill="#67dcff" d="M 1478.671875 744.730469 C 1478.671875 866.175781 1380.386719 964.46875 1258.945312 964.46875 L 808.933594 964.46875 C 653.378906 964.46875 527.066406 838.148438 527.066406 682.585938 L 527.066406 232.546875 C 527.066406 111.101562 625.355469 12.808594 746.792969 12.808594 C 868.230469 12.808594 966.519531 111.101562 966.519531 232.546875 L 966.519531 524.992188 L 1258.945312 524.992188 C 1380.386719 524.992188 1478.671875 623.691406 1478.671875 744.730469 Z M 1478.671875 744.730469 " fill-opacity="1" fill-rule="nonzero"/></g><g clip-path="url(#66f5231f99)"><path fill="#587dff" d="M 13.289062 741.886719 C 13.289062 620.441406 111.578125 522.148438 233.015625 522.148438 L 683.027344 522.148438 C 838.582031 522.148438 964.894531 648.46875 964.894531 804.03125 L 964.894531 1254.070312 C 964.894531 1375.515625 866.605469 1473.808594 745.167969 1473.808594 C 623.730469 1473.808594 525.441406 1375.515625 525.441406 1254.070312 L 525.441406 961.625 L 233.015625 961.625 C 111.578125 961.625 13.289062 863.332031 13.289062 741.886719 Z M 13.289062 741.886719 " fill-opacity="1" fill-rule="nonzero"/></g><path fill="#2720ff" d="M 964.894531 804.03125 L 964.894531 964.46875 L 808.933594 964.46875 C 653.378906 964.46875 527.066406 838.148438 527.066406 682.585938 L 527.066406 522.148438 L 683.027344 522.148438 C 838.582031 522.148438 964.894531 648.46875 964.894531 804.03125 Z M 964.894531 804.03125 " fill-opacity="1" fill-rule="nonzero"/></svg>
